<mxfile host="app.diagrams.net" modified="2021-03-20T10:44:14.868Z" agent="5.0 (Windows)" etag="GUF41zeHIIUDSOngjRta" version="14.4.9" type="github">
  <diagram id="C5RBs43oDa-KdzZeNtuy" name="Page-1">
    <mxGraphModel dx="5076" dy="3776" grid="1" gridSize="10" guides="1" tooltips="1" connect="1" arrows="1" fold="1" page="1" pageScale="1" pageWidth="827" pageHeight="1169" math="0" shadow="0">
      <root>
        <mxCell id="WIyWlLk6GJQsqaUBKTNV-0" />
        <mxCell id="WIyWlLk6GJQsqaUBKTNV-1" parent="WIyWlLk6GJQsqaUBKTNV-0" />
        <mxCell id="4Sy1q6FF75Fvo_xeQfH7-0" value="InternalModel" style="swimlane;fontStyle=1;align=center;verticalAlign=top;childLayout=stackLayout;horizontal=1;startSize=26;horizontalStack=0;resizeParent=1;resizeParentMax=0;resizeLast=0;collapsible=1;marginBottom=0;" parent="WIyWlLk6GJQsqaUBKTNV-1" vertex="1">
          <mxGeometry x="-390" y="156" width="160" height="208" as="geometry" />
        </mxCell>
        <mxCell id="4Sy1q6FF75Fvo_xeQfH7-1" value="+ field: type" style="text;strokeColor=none;fillColor=none;align=left;verticalAlign=top;spacingLeft=4;spacingRight=4;overflow=hidden;rotatable=0;points=[[0,0.5],[1,0.5]];portConstraint=eastwest;" parent="4Sy1q6FF75Fvo_xeQfH7-0" vertex="1">
          <mxGeometry y="26" width="160" height="74" as="geometry" />
        </mxCell>
        <mxCell id="4Sy1q6FF75Fvo_xeQfH7-2" value="" style="line;strokeWidth=1;fillColor=none;align=left;verticalAlign=middle;spacingTop=-1;spacingLeft=3;spacingRight=3;rotatable=0;labelPosition=right;points=[];portConstraint=eastwest;" parent="4Sy1q6FF75Fvo_xeQfH7-0" vertex="1">
          <mxGeometry y="100" width="160" height="8" as="geometry" />
        </mxCell>
        <mxCell id="4Sy1q6FF75Fvo_xeQfH7-3" value="+ method(type): type" style="text;strokeColor=none;fillColor=none;align=left;verticalAlign=top;spacingLeft=4;spacingRight=4;overflow=hidden;rotatable=0;points=[[0,0.5],[1,0.5]];portConstraint=eastwest;" parent="4Sy1q6FF75Fvo_xeQfH7-0" vertex="1">
          <mxGeometry y="108" width="160" height="100" as="geometry" />
        </mxCell>
        <mxCell id="4Sy1q6FF75Fvo_xeQfH7-4" value="Market" style="swimlane;fontStyle=1;align=center;verticalAlign=top;childLayout=stackLayout;horizontal=1;startSize=26;horizontalStack=0;resizeParent=1;resizeParentMax=0;resizeLast=0;collapsible=1;marginBottom=0;" parent="WIyWlLk6GJQsqaUBKTNV-1" vertex="1">
          <mxGeometry x="80" y="-80" width="250" height="160" as="geometry" />
        </mxCell>
        <mxCell id="4Sy1q6FF75Fvo_xeQfH7-5" value="- marbles: Marble[3][4]&#xa;- spareMarble: Marble" style="text;strokeColor=none;fillColor=none;align=left;verticalAlign=top;spacingLeft=4;spacingRight=4;overflow=hidden;rotatable=0;points=[[0,0.5],[1,0.5]];portConstraint=eastwest;" parent="4Sy1q6FF75Fvo_xeQfH7-4" vertex="1">
          <mxGeometry y="26" width="250" height="44" as="geometry" />
        </mxCell>
        <mxCell id="4Sy1q6FF75Fvo_xeQfH7-6" value="" style="line;strokeWidth=1;fillColor=none;align=left;verticalAlign=middle;spacingTop=-1;spacingLeft=3;spacingRight=3;rotatable=0;labelPosition=right;points=[];portConstraint=eastwest;" parent="4Sy1q6FF75Fvo_xeQfH7-4" vertex="1">
          <mxGeometry y="70" width="250" height="8" as="geometry" />
        </mxCell>
        <mxCell id="4Sy1q6FF75Fvo_xeQfH7-7" value="+ generateTable() : &#xa;+ getCol(integer) : List&lt;Marble&gt;&#xa;+ getRow(integer) : List&lt;Marble&gt;&#xa;" style="text;strokeColor=none;fillColor=none;align=left;verticalAlign=top;spacingLeft=4;spacingRight=4;overflow=hidden;rotatable=0;points=[[0,0.5],[1,0.5]];portConstraint=eastwest;" parent="4Sy1q6FF75Fvo_xeQfH7-4" vertex="1">
          <mxGeometry y="78" width="250" height="82" as="geometry" />
        </mxCell>
        <mxCell id="4Sy1q6FF75Fvo_xeQfH7-8" value="Marble" style="swimlane;fontStyle=1;align=center;verticalAlign=top;childLayout=stackLayout;horizontal=1;startSize=26;horizontalStack=0;resizeParent=1;resizeParentMax=0;resizeLast=0;collapsible=1;marginBottom=0;" parent="WIyWlLk6GJQsqaUBKTNV-1" vertex="1">
          <mxGeometry x="490" y="-43" width="160" height="86" as="geometry" />
        </mxCell>
        <mxCell id="4Sy1q6FF75Fvo_xeQfH7-9" value="+ field: type" style="text;strokeColor=none;fillColor=none;align=left;verticalAlign=top;spacingLeft=4;spacingRight=4;overflow=hidden;rotatable=0;points=[[0,0.5],[1,0.5]];portConstraint=eastwest;" parent="4Sy1q6FF75Fvo_xeQfH7-8" vertex="1">
          <mxGeometry y="26" width="160" height="26" as="geometry" />
        </mxCell>
        <mxCell id="4Sy1q6FF75Fvo_xeQfH7-10" value="" style="line;strokeWidth=1;fillColor=none;align=left;verticalAlign=middle;spacingTop=-1;spacingLeft=3;spacingRight=3;rotatable=0;labelPosition=right;points=[];portConstraint=eastwest;" parent="4Sy1q6FF75Fvo_xeQfH7-8" vertex="1">
          <mxGeometry y="52" width="160" height="8" as="geometry" />
        </mxCell>
        <mxCell id="4Sy1q6FF75Fvo_xeQfH7-11" value="+ method(type): type" style="text;strokeColor=none;fillColor=none;align=left;verticalAlign=top;spacingLeft=4;spacingRight=4;overflow=hidden;rotatable=0;points=[[0,0.5],[1,0.5]];portConstraint=eastwest;" parent="4Sy1q6FF75Fvo_xeQfH7-8" vertex="1">
          <mxGeometry y="60" width="160" height="26" as="geometry" />
        </mxCell>
        <mxCell id="4Sy1q6FF75Fvo_xeQfH7-14" value="" style="endArrow=open;endFill=1;endSize=12;html=1;" parent="WIyWlLk6GJQsqaUBKTNV-1" source="4Sy1q6FF75Fvo_xeQfH7-8" target="4Sy1q6FF75Fvo_xeQfH7-4" edge="1">
          <mxGeometry width="160" relative="1" as="geometry">
            <mxPoint x="245" y="-40" as="sourcePoint" />
            <mxPoint x="405" y="-40" as="targetPoint" />
          </mxGeometry>
        </mxCell>
        <mxCell id="4Sy1q6FF75Fvo_xeQfH7-15" value="13" style="text;html=1;align=center;verticalAlign=middle;resizable=0;points=[];autosize=1;" parent="WIyWlLk6GJQsqaUBKTNV-1" vertex="1">
          <mxGeometry x="460" y="-26" width="30" height="20" as="geometry" />
        </mxCell>
        <mxCell id="4Sy1q6FF75Fvo_xeQfH7-16" value="1" style="text;html=1;align=center;verticalAlign=middle;resizable=0;points=[];autosize=1;" parent="WIyWlLk6GJQsqaUBKTNV-1" vertex="1">
          <mxGeometry x="340" y="-33" width="20" height="20" as="geometry" />
        </mxCell>
        <mxCell id="4Sy1q6FF75Fvo_xeQfH7-18" value="MarketHandler" style="swimlane;fontStyle=1;align=center;verticalAlign=top;childLayout=stackLayout;horizontal=1;startSize=26;horizontalStack=0;resizeParent=1;resizeParentMax=0;resizeLast=0;collapsible=1;marginBottom=0;" parent="WIyWlLk6GJQsqaUBKTNV-1" vertex="1">
          <mxGeometry x="20" y="150" width="370" height="80" as="geometry" />
        </mxCell>
        <mxCell id="4Sy1q6FF75Fvo_xeQfH7-20" value="" style="line;strokeWidth=1;fillColor=none;align=left;verticalAlign=middle;spacingTop=-1;spacingLeft=3;spacingRight=3;rotatable=0;labelPosition=right;points=[];portConstraint=eastwest;" parent="4Sy1q6FF75Fvo_xeQfH7-18" vertex="1">
          <mxGeometry y="26" width="370" height="8" as="geometry" />
        </mxCell>
        <mxCell id="4Sy1q6FF75Fvo_xeQfH7-21" value="+ useMarket(Selection, integer, Resource):List&lt;Rescource&gt;" style="text;strokeColor=none;fillColor=none;align=left;verticalAlign=top;spacingLeft=4;spacingRight=4;overflow=hidden;rotatable=0;points=[[0,0.5],[1,0.5]];portConstraint=eastwest;" parent="4Sy1q6FF75Fvo_xeQfH7-18" vertex="1">
          <mxGeometry y="34" width="370" height="26" as="geometry" />
        </mxCell>
        <mxCell id="4Sy1q6FF75Fvo_xeQfH7-34" value="&lt;font style=&quot;font-size: 25px&quot; color=&quot;#FF1717&quot;&gt;?&lt;/font&gt;" style="text;html=1;align=center;verticalAlign=middle;resizable=0;points=[];autosize=1;" parent="4Sy1q6FF75Fvo_xeQfH7-18" vertex="1">
          <mxGeometry y="60" width="370" height="20" as="geometry" />
        </mxCell>
        <mxCell id="4Sy1q6FF75Fvo_xeQfH7-22" value="Player" style="swimlane;fontStyle=1;align=center;verticalAlign=top;childLayout=stackLayout;horizontal=1;startSize=26;horizontalStack=0;resizeParent=1;resizeParentMax=0;resizeLast=0;collapsible=1;marginBottom=0;" parent="WIyWlLk6GJQsqaUBKTNV-1" vertex="1">
          <mxGeometry x="20" y="410" width="372.5" height="320" as="geometry" />
        </mxCell>
        <mxCell id="4Sy1q6FF75Fvo_xeQfH7-23" value="- nickName: String&#xa;- calamaio: boolean&#xa;- developmentCards: List&lt;CardDevelopment&gt; &#xa;- leaderCards: List&lt;CardLeader&gt;&#xa;- playerState: PlayerState&#xa;- favorTiles: ArrayList&lt;FavorTile&gt;&#xa;&#xa;- hasProducitonJolly: boolean&#xa;&#xa;&#xa;&#xa;" style="text;strokeColor=none;fillColor=none;align=left;verticalAlign=top;spacingLeft=4;spacingRight=4;overflow=hidden;rotatable=0;points=[[0,0.5],[1,0.5]];portConstraint=eastwest;" parent="4Sy1q6FF75Fvo_xeQfH7-22" vertex="1">
          <mxGeometry y="26" width="372.5" height="144" as="geometry" />
        </mxCell>
        <mxCell id="4Sy1q6FF75Fvo_xeQfH7-24" value="" style="line;strokeWidth=1;fillColor=none;align=left;verticalAlign=middle;spacingTop=-1;spacingLeft=3;spacingRight=3;rotatable=0;labelPosition=right;points=[];portConstraint=eastwest;" parent="4Sy1q6FF75Fvo_xeQfH7-22" vertex="1">
          <mxGeometry y="170" width="372.5" height="8" as="geometry" />
        </mxCell>
        <mxCell id="4Sy1q6FF75Fvo_xeQfH7-25" value="- setPlayerState(PlayerState) &#xa;&#xa;+ getters&#xa;+ setters&#xa;&#xa;+ useMarket(Section, integer): Map&lt;Resource, integer&gt; &#xa;+ buyDevelopmentCard(integer, integer): CardDevelopment&#xa;+ activateProduction(): Map&lt;Resource, integer&gt;&#xa;+ getVictoryPoints(): integer&#xa;&#xa;&#xa;&#xa;&#xa;" style="text;strokeColor=none;fillColor=none;align=left;verticalAlign=top;spacingLeft=4;spacingRight=4;overflow=hidden;rotatable=0;points=[[0,0.5],[1,0.5]];portConstraint=eastwest;" parent="4Sy1q6FF75Fvo_xeQfH7-22" vertex="1">
          <mxGeometry y="178" width="372.5" height="142" as="geometry" />
        </mxCell>
        <mxCell id="4Sy1q6FF75Fvo_xeQfH7-26" value="" style="endArrow=open;endFill=1;endSize=12;html=1;" parent="WIyWlLk6GJQsqaUBKTNV-1" source="4Sy1q6FF75Fvo_xeQfH7-4" target="4Sy1q6FF75Fvo_xeQfH7-18" edge="1">
          <mxGeometry width="160" relative="1" as="geometry">
            <mxPoint x="235" y="100" as="sourcePoint" />
            <mxPoint x="395" y="100" as="targetPoint" />
          </mxGeometry>
        </mxCell>
        <mxCell id="4Sy1q6FF75Fvo_xeQfH7-27" value="" style="endArrow=open;endFill=1;endSize=12;html=1;" parent="WIyWlLk6GJQsqaUBKTNV-1" source="4Sy1q6FF75Fvo_xeQfH7-18" target="4Sy1q6FF75Fvo_xeQfH7-22" edge="1">
          <mxGeometry width="160" relative="1" as="geometry">
            <mxPoint x="335" y="556" as="sourcePoint" />
            <mxPoint x="436.23456790123464" y="676" as="targetPoint" />
          </mxGeometry>
        </mxCell>
        <mxCell id="4Sy1q6FF75Fvo_xeQfH7-28" value="" style="shape=note;whiteSpace=wrap;html=1;backgroundOutline=1;darkOpacity=0.05;" parent="WIyWlLk6GJQsqaUBKTNV-1" vertex="1">
          <mxGeometry x="-1690" y="-560" width="610" height="500" as="geometry" />
        </mxCell>
        <mxCell id="4Sy1q6FF75Fvo_xeQfH7-30" value="Selection" style="swimlane;fontStyle=0;childLayout=stackLayout;horizontal=1;startSize=26;fillColor=none;horizontalStack=0;resizeParent=1;resizeParentMax=0;resizeLast=0;collapsible=1;marginBottom=0;" parent="WIyWlLk6GJQsqaUBKTNV-1" vertex="1">
          <mxGeometry x="-1670" y="-531" width="140" height="70" as="geometry" />
        </mxCell>
        <mxCell id="4Sy1q6FF75Fvo_xeQfH7-31" value="ROW&#xa;COLUMN&#xa;" style="text;strokeColor=none;fillColor=none;align=left;verticalAlign=top;spacingLeft=4;spacingRight=4;overflow=hidden;rotatable=0;points=[[0,0.5],[1,0.5]];portConstraint=eastwest;" parent="4Sy1q6FF75Fvo_xeQfH7-30" vertex="1">
          <mxGeometry y="26" width="140" height="44" as="geometry" />
        </mxCell>
        <mxCell id="4Sy1q6FF75Fvo_xeQfH7-35" value="" style="endArrow=open;endFill=1;endSize=12;html=1;" parent="WIyWlLk6GJQsqaUBKTNV-1" source="4Sy1q6FF75Fvo_xeQfH7-4" target="4Sy1q6FF75Fvo_xeQfH7-0" edge="1">
          <mxGeometry width="160" relative="1" as="geometry">
            <mxPoint x="-270" y="110" as="sourcePoint" />
            <mxPoint x="-150" y="70" as="targetPoint" />
          </mxGeometry>
        </mxCell>
        <mxCell id="4Sy1q6FF75Fvo_xeQfH7-36" value="" style="endArrow=diamondThin;endFill=1;endSize=24;html=1;" parent="WIyWlLk6GJQsqaUBKTNV-1" source="4Sy1q6FF75Fvo_xeQfH7-22" target="4Sy1q6FF75Fvo_xeQfH7-0" edge="1">
          <mxGeometry width="160" relative="1" as="geometry">
            <mxPoint x="50" y="360" as="sourcePoint" />
            <mxPoint x="210" y="360" as="targetPoint" />
          </mxGeometry>
        </mxCell>
        <mxCell id="4Sy1q6FF75Fvo_xeQfH7-37" value="1..4" style="text;html=1;align=center;verticalAlign=middle;resizable=0;points=[];autosize=1;" parent="WIyWlLk6GJQsqaUBKTNV-1" vertex="1">
          <mxGeometry x="-20" y="410" width="40" height="20" as="geometry" />
        </mxCell>
        <mxCell id="4Sy1q6FF75Fvo_xeQfH7-38" value="&lt;div&gt;1&lt;/div&gt;" style="text;html=1;align=center;verticalAlign=middle;resizable=0;points=[];autosize=1;" parent="WIyWlLk6GJQsqaUBKTNV-1" vertex="1">
          <mxGeometry x="-200" y="290" width="20" height="20" as="geometry" />
        </mxCell>
        <mxCell id="4Sy1q6FF75Fvo_xeQfH7-40" value="PersonalBoard" style="swimlane;fontStyle=1;align=center;verticalAlign=top;childLayout=stackLayout;horizontal=1;startSize=26;horizontalStack=0;resizeParent=1;resizeParentMax=0;resizeLast=0;collapsible=1;marginBottom=0;" parent="WIyWlLk6GJQsqaUBKTNV-1" vertex="1">
          <mxGeometry x="140" y="816" width="230" height="94" as="geometry" />
        </mxCell>
        <mxCell id="4Sy1q6FF75Fvo_xeQfH7-41" value="- leaderCards: List&lt;CardLeader&gt;" style="text;strokeColor=none;fillColor=none;align=left;verticalAlign=top;spacingLeft=4;spacingRight=4;overflow=hidden;rotatable=0;points=[[0,0.5],[1,0.5]];portConstraint=eastwest;" parent="4Sy1q6FF75Fvo_xeQfH7-40" vertex="1">
          <mxGeometry y="26" width="230" height="34" as="geometry" />
        </mxCell>
        <mxCell id="4Sy1q6FF75Fvo_xeQfH7-42" value="" style="line;strokeWidth=1;fillColor=none;align=left;verticalAlign=middle;spacingTop=-1;spacingLeft=3;spacingRight=3;rotatable=0;labelPosition=right;points=[];portConstraint=eastwest;" parent="4Sy1q6FF75Fvo_xeQfH7-40" vertex="1">
          <mxGeometry y="60" width="230" height="8" as="geometry" />
        </mxCell>
        <mxCell id="4Sy1q6FF75Fvo_xeQfH7-43" value="+ getLeaderCards(): List&lt;CardLeader&gt;" style="text;strokeColor=none;fillColor=none;align=left;verticalAlign=top;spacingLeft=4;spacingRight=4;overflow=hidden;rotatable=0;points=[[0,0.5],[1,0.5]];portConstraint=eastwest;" parent="4Sy1q6FF75Fvo_xeQfH7-40" vertex="1">
          <mxGeometry y="68" width="230" height="26" as="geometry" />
        </mxCell>
        <mxCell id="4Sy1q6FF75Fvo_xeQfH7-44" value="" style="endArrow=open;endFill=1;endSize=12;html=1;" parent="WIyWlLk6GJQsqaUBKTNV-1" source="4Sy1q6FF75Fvo_xeQfH7-22" target="4Sy1q6FF75Fvo_xeQfH7-40" edge="1">
          <mxGeometry width="160" relative="1" as="geometry">
            <mxPoint x="60" y="490" as="sourcePoint" />
            <mxPoint x="220" y="510" as="targetPoint" />
          </mxGeometry>
        </mxCell>
        <mxCell id="4Sy1q6FF75Fvo_xeQfH7-45" value="CardDevelopmentSlot" style="swimlane;fontStyle=1;align=center;verticalAlign=top;childLayout=stackLayout;horizontal=1;startSize=26;horizontalStack=0;resizeParent=1;resizeParentMax=0;resizeLast=0;collapsible=1;marginBottom=0;" parent="WIyWlLk6GJQsqaUBKTNV-1" vertex="1">
          <mxGeometry x="120" y="1160" width="220" height="100" as="geometry" />
        </mxCell>
        <mxCell id="4Sy1q6FF75Fvo_xeQfH7-46" value="- cards: List&lt;CardDevelopment&gt;" style="text;strokeColor=none;fillColor=none;align=left;verticalAlign=top;spacingLeft=4;spacingRight=4;overflow=hidden;rotatable=0;points=[[0,0.5],[1,0.5]];portConstraint=eastwest;" parent="4Sy1q6FF75Fvo_xeQfH7-45" vertex="1">
          <mxGeometry y="26" width="220" height="26" as="geometry" />
        </mxCell>
        <mxCell id="4Sy1q6FF75Fvo_xeQfH7-47" value="" style="line;strokeWidth=1;fillColor=none;align=left;verticalAlign=middle;spacingTop=-1;spacingLeft=3;spacingRight=3;rotatable=0;labelPosition=right;points=[];portConstraint=eastwest;" parent="4Sy1q6FF75Fvo_xeQfH7-45" vertex="1">
          <mxGeometry y="52" width="220" height="8" as="geometry" />
        </mxCell>
        <mxCell id="4Sy1q6FF75Fvo_xeQfH7-48" value="+ getTop(): CardDevelopment&#xa;+ placeCard(CardDevelopment):&#xa;" style="text;strokeColor=none;fillColor=none;align=left;verticalAlign=top;spacingLeft=4;spacingRight=4;overflow=hidden;rotatable=0;points=[[0,0.5],[1,0.5]];portConstraint=eastwest;" parent="4Sy1q6FF75Fvo_xeQfH7-45" vertex="1">
          <mxGeometry y="60" width="220" height="40" as="geometry" />
        </mxCell>
        <mxCell id="4Sy1q6FF75Fvo_xeQfH7-49" value="FaithTrail" style="swimlane;fontStyle=1;align=center;verticalAlign=top;childLayout=stackLayout;horizontal=1;startSize=26;horizontalStack=0;resizeParent=1;resizeParentMax=0;resizeLast=0;collapsible=1;marginBottom=0;" parent="WIyWlLk6GJQsqaUBKTNV-1" vertex="1">
          <mxGeometry x="-1088" y="-10" width="227.5" height="140" as="geometry" />
        </mxCell>
        <mxCell id="4Sy1q6FF75Fvo_xeQfH7-50" value="- lenght: integer&#xa;- cells: ArrayList&lt;FaithCell&gt;[length]&#xa;- playerPosition: Map&lt;Player, Integer&gt;&#xa;&#xa;" style="text;strokeColor=none;fillColor=none;align=left;verticalAlign=top;spacingLeft=4;spacingRight=4;overflow=hidden;rotatable=0;points=[[0,0.5],[1,0.5]];portConstraint=eastwest;" parent="4Sy1q6FF75Fvo_xeQfH7-49" vertex="1">
          <mxGeometry y="26" width="227.5" height="54" as="geometry" />
        </mxCell>
        <mxCell id="4Sy1q6FF75Fvo_xeQfH7-51" value="" style="line;strokeWidth=1;fillColor=none;align=left;verticalAlign=middle;spacingTop=-1;spacingLeft=3;spacingRight=3;rotatable=0;labelPosition=right;points=[];portConstraint=eastwest;" parent="4Sy1q6FF75Fvo_xeQfH7-49" vertex="1">
          <mxGeometry y="80" width="227.5" height="8" as="geometry" />
        </mxCell>
        <mxCell id="4Sy1q6FF75Fvo_xeQfH7-52" value="+ getCell(integer): FaithCell&#xa;+ getVictoryPoints(): integer&#xa;+ movePlayer(Player, integer)&#xa;&#xa;" style="text;strokeColor=none;fillColor=none;align=left;verticalAlign=top;spacingLeft=4;spacingRight=4;overflow=hidden;rotatable=0;points=[[0,0.5],[1,0.5]];portConstraint=eastwest;" parent="4Sy1q6FF75Fvo_xeQfH7-49" vertex="1">
          <mxGeometry y="88" width="227.5" height="52" as="geometry" />
        </mxCell>
        <mxCell id="4Sy1q6FF75Fvo_xeQfH7-53" value="Stronghold" style="swimlane;fontStyle=1;align=center;verticalAlign=top;childLayout=stackLayout;horizontal=1;startSize=26;horizontalStack=0;resizeParent=1;resizeParentMax=0;resizeLast=0;collapsible=1;marginBottom=0;" parent="WIyWlLk6GJQsqaUBKTNV-1" vertex="1">
          <mxGeometry x="790" y="810" width="260" height="140" as="geometry" />
        </mxCell>
        <mxCell id="4Sy1q6FF75Fvo_xeQfH7-54" value="+ content: Map&lt;Resource,integer&gt;" style="text;strokeColor=none;fillColor=none;align=left;verticalAlign=top;spacingLeft=4;spacingRight=4;overflow=hidden;rotatable=0;points=[[0,0.5],[1,0.5]];portConstraint=eastwest;" parent="4Sy1q6FF75Fvo_xeQfH7-53" vertex="1">
          <mxGeometry y="26" width="260" height="26" as="geometry" />
        </mxCell>
        <mxCell id="4Sy1q6FF75Fvo_xeQfH7-55" value="" style="line;strokeWidth=1;fillColor=none;align=left;verticalAlign=middle;spacingTop=-1;spacingLeft=3;spacingRight=3;rotatable=0;labelPosition=right;points=[];portConstraint=eastwest;" parent="4Sy1q6FF75Fvo_xeQfH7-53" vertex="1">
          <mxGeometry y="52" width="260" height="8" as="geometry" />
        </mxCell>
        <mxCell id="4Sy1q6FF75Fvo_xeQfH7-56" value="+ useResources(Resource, integer)&#xa;+ hasResources(Resource, integer): boolean&#xa;+ getContent(): Map&lt;Resource, integer&gt;&#xa;+ addResources(Resource, integer)&#xa;" style="text;strokeColor=none;fillColor=none;align=left;verticalAlign=top;spacingLeft=4;spacingRight=4;overflow=hidden;rotatable=0;points=[[0,0.5],[1,0.5]];portConstraint=eastwest;" parent="4Sy1q6FF75Fvo_xeQfH7-53" vertex="1">
          <mxGeometry y="60" width="260" height="80" as="geometry" />
        </mxCell>
        <mxCell id="4Sy1q6FF75Fvo_xeQfH7-57" value="Deposit" style="swimlane;fontStyle=1;align=center;verticalAlign=top;childLayout=stackLayout;horizontal=1;startSize=26;horizontalStack=0;resizeParent=1;resizeParentMax=0;resizeLast=0;collapsible=1;marginBottom=0;" parent="WIyWlLk6GJQsqaUBKTNV-1" vertex="1">
          <mxGeometry x="790" y="1150" width="260" height="140" as="geometry" />
        </mxCell>
        <mxCell id="4Sy1q6FF75Fvo_xeQfH7-58" value="+ field: type" style="text;strokeColor=none;fillColor=none;align=left;verticalAlign=top;spacingLeft=4;spacingRight=4;overflow=hidden;rotatable=0;points=[[0,0.5],[1,0.5]];portConstraint=eastwest;" parent="4Sy1q6FF75Fvo_xeQfH7-57" vertex="1">
          <mxGeometry y="26" width="260" height="26" as="geometry" />
        </mxCell>
        <mxCell id="4Sy1q6FF75Fvo_xeQfH7-59" value="" style="line;strokeWidth=1;fillColor=none;align=left;verticalAlign=middle;spacingTop=-1;spacingLeft=3;spacingRight=3;rotatable=0;labelPosition=right;points=[];portConstraint=eastwest;" parent="4Sy1q6FF75Fvo_xeQfH7-57" vertex="1">
          <mxGeometry y="52" width="260" height="8" as="geometry" />
        </mxCell>
        <mxCell id="4Sy1q6FF75Fvo_xeQfH7-60" value="- discard(Map&lt;Resource, integer&gt;) : integer&#xa;- discard(Resource): boolean&#xa;&#xa;" style="text;strokeColor=none;fillColor=none;align=left;verticalAlign=top;spacingLeft=4;spacingRight=4;overflow=hidden;rotatable=0;points=[[0,0.5],[1,0.5]];portConstraint=eastwest;fontColor=#FF3838;" parent="4Sy1q6FF75Fvo_xeQfH7-57" vertex="1">
          <mxGeometry y="60" width="260" height="60" as="geometry" />
        </mxCell>
        <mxCell id="4Sy1q6FF75Fvo_xeQfH7-70" value="&lt;div align=&quot;left&quot;&gt;+ addResources(Resource,integer)&lt;/div&gt;" style="text;html=1;align=left;verticalAlign=middle;resizable=0;points=[];autosize=1;fontColor=#000000;" parent="4Sy1q6FF75Fvo_xeQfH7-57" vertex="1">
          <mxGeometry y="120" width="260" height="20" as="geometry" />
        </mxCell>
        <mxCell id="4Sy1q6FF75Fvo_xeQfH7-61" value="&lt;font style=&quot;font-size: 25px&quot; color=&quot;#FF0F0F&quot;&gt;Usare PersonalBoard o no? &lt;br&gt;&lt;/font&gt;" style="text;html=1;align=center;verticalAlign=middle;resizable=0;points=[];autosize=1;" parent="WIyWlLk6GJQsqaUBKTNV-1" vertex="1">
          <mxGeometry x="60" y="760" width="320" height="20" as="geometry" />
        </mxCell>
        <mxCell id="4Sy1q6FF75Fvo_xeQfH7-62" value="" style="endArrow=open;endFill=1;endSize=12;html=1;" parent="WIyWlLk6GJQsqaUBKTNV-1" source="4Sy1q6FF75Fvo_xeQfH7-57" target="4Sy1q6FF75Fvo_xeQfH7-40" edge="1">
          <mxGeometry width="160" relative="1" as="geometry">
            <mxPoint x="90" y="830" as="sourcePoint" />
            <mxPoint x="250" y="830" as="targetPoint" />
          </mxGeometry>
        </mxCell>
        <mxCell id="4Sy1q6FF75Fvo_xeQfH7-63" value="" style="endArrow=open;endFill=1;endSize=12;html=1;" parent="WIyWlLk6GJQsqaUBKTNV-1" source="4Sy1q6FF75Fvo_xeQfH7-53" target="4Sy1q6FF75Fvo_xeQfH7-40" edge="1">
          <mxGeometry width="160" relative="1" as="geometry">
            <mxPoint x="-140" y="860" as="sourcePoint" />
            <mxPoint x="58.25238095238092" y="736" as="targetPoint" />
          </mxGeometry>
        </mxCell>
        <mxCell id="4Sy1q6FF75Fvo_xeQfH7-64" value="" style="endArrow=open;endFill=1;endSize=12;html=1;" parent="WIyWlLk6GJQsqaUBKTNV-1" source="4Sy1q6FF75Fvo_xeQfH7-49" target="4Sy1q6FF75Fvo_xeQfH7-0" edge="1">
          <mxGeometry width="160" relative="1" as="geometry">
            <mxPoint x="-388" y="250" as="sourcePoint" />
            <mxPoint x="-790" y="340" as="targetPoint" />
          </mxGeometry>
        </mxCell>
        <mxCell id="4Sy1q6FF75Fvo_xeQfH7-65" value="" style="endArrow=diamondThin;endFill=1;endSize=24;html=1;" parent="WIyWlLk6GJQsqaUBKTNV-1" source="4Sy1q6FF75Fvo_xeQfH7-45" target="4Sy1q6FF75Fvo_xeQfH7-40" edge="1">
          <mxGeometry width="160" relative="1" as="geometry">
            <mxPoint x="90" y="820" as="sourcePoint" />
            <mxPoint x="250" y="820" as="targetPoint" />
          </mxGeometry>
        </mxCell>
        <mxCell id="4Sy1q6FF75Fvo_xeQfH7-66" value="3" style="text;html=1;align=center;verticalAlign=middle;resizable=0;points=[];autosize=1;" parent="WIyWlLk6GJQsqaUBKTNV-1" vertex="1">
          <mxGeometry x="200" y="1130" width="20" height="20" as="geometry" />
        </mxCell>
        <mxCell id="4Sy1q6FF75Fvo_xeQfH7-67" value="Extends" style="endArrow=block;endSize=16;endFill=0;html=1;" parent="WIyWlLk6GJQsqaUBKTNV-1" source="4Sy1q6FF75Fvo_xeQfH7-57" target="4Sy1q6FF75Fvo_xeQfH7-53" edge="1">
          <mxGeometry width="160" relative="1" as="geometry">
            <mxPoint x="1170" y="950" as="sourcePoint" />
            <mxPoint x="1330" y="950" as="targetPoint" />
          </mxGeometry>
        </mxCell>
        <mxCell id="4Sy1q6FF75Fvo_xeQfH7-72" value="FaithCell" style="swimlane;fontStyle=1;align=center;verticalAlign=top;childLayout=stackLayout;horizontal=1;startSize=26;horizontalStack=0;resizeParent=1;resizeParentMax=0;resizeLast=0;collapsible=1;marginBottom=0;fontColor=#000000;" parent="WIyWlLk6GJQsqaUBKTNV-1" vertex="1">
          <mxGeometry x="-844" y="270" width="180.75" height="180" as="geometry" />
        </mxCell>
        <mxCell id="4Sy1q6FF75Fvo_xeQfH7-73" value="- type: CellType&#xa;- section: FaithSection&#xa;- victoryPoints: integer&#xa;" style="text;strokeColor=none;fillColor=none;align=left;verticalAlign=top;spacingLeft=4;spacingRight=4;overflow=hidden;rotatable=0;points=[[0,0.5],[1,0.5]];portConstraint=eastwest;" parent="4Sy1q6FF75Fvo_xeQfH7-72" vertex="1">
          <mxGeometry y="26" width="180.75" height="74" as="geometry" />
        </mxCell>
        <mxCell id="4Sy1q6FF75Fvo_xeQfH7-74" value="" style="line;strokeWidth=1;fillColor=none;align=left;verticalAlign=middle;spacingTop=-1;spacingLeft=3;spacingRight=3;rotatable=0;labelPosition=right;points=[];portConstraint=eastwest;" parent="4Sy1q6FF75Fvo_xeQfH7-72" vertex="1">
          <mxGeometry y="100" width="180.75" height="8" as="geometry" />
        </mxCell>
        <mxCell id="4Sy1q6FF75Fvo_xeQfH7-75" value="+ isPope(): integer&#xa;+ getSection(): Section&#xa;&#xa;&#xa;" style="text;strokeColor=none;fillColor=none;align=left;verticalAlign=top;spacingLeft=4;spacingRight=4;overflow=hidden;rotatable=0;points=[[0,0.5],[1,0.5]];portConstraint=eastwest;" parent="4Sy1q6FF75Fvo_xeQfH7-72" vertex="1">
          <mxGeometry y="108" width="180.75" height="72" as="geometry" />
        </mxCell>
        <mxCell id="4Sy1q6FF75Fvo_xeQfH7-78" value="FaithSection" style="swimlane;fontStyle=0;childLayout=stackLayout;horizontal=1;startSize=26;fillColor=none;horizontalStack=0;resizeParent=1;resizeParentMax=0;resizeLast=0;collapsible=1;marginBottom=0;" parent="WIyWlLk6GJQsqaUBKTNV-1" vertex="1">
          <mxGeometry x="-1480" y="-530" width="140" height="90" as="geometry" />
        </mxCell>
        <mxCell id="4Sy1q6FF75Fvo_xeQfH7-79" value="1&#xa;2&#xa;3&#xa;" style="text;strokeColor=none;fillColor=none;align=left;verticalAlign=top;spacingLeft=4;spacingRight=4;overflow=hidden;rotatable=0;points=[[0,0.5],[1,0.5]];portConstraint=eastwest;" parent="4Sy1q6FF75Fvo_xeQfH7-78" vertex="1">
          <mxGeometry y="26" width="140" height="64" as="geometry" />
        </mxCell>
        <mxCell id="4Sy1q6FF75Fvo_xeQfH7-82" value="CellType" style="swimlane;fontStyle=0;childLayout=stackLayout;horizontal=1;startSize=26;fillColor=none;horizontalStack=0;resizeParent=1;resizeParentMax=0;resizeLast=0;collapsible=1;marginBottom=0;" parent="WIyWlLk6GJQsqaUBKTNV-1" vertex="1">
          <mxGeometry x="-1290" y="-530" width="140" height="90" as="geometry" />
        </mxCell>
        <mxCell id="4Sy1q6FF75Fvo_xeQfH7-83" value="NORMAL&#xa;REPORT&#xa;POPE_SPACE&#xa;" style="text;strokeColor=none;fillColor=none;align=left;verticalAlign=top;spacingLeft=4;spacingRight=4;overflow=hidden;rotatable=0;points=[[0,0.5],[1,0.5]];portConstraint=eastwest;" parent="4Sy1q6FF75Fvo_xeQfH7-82" vertex="1">
          <mxGeometry y="26" width="140" height="64" as="geometry" />
        </mxCell>
        <mxCell id="4Sy1q6FF75Fvo_xeQfH7-85" value="" style="endArrow=diamondThin;endFill=1;endSize=24;html=1;fontColor=#000000;" parent="WIyWlLk6GJQsqaUBKTNV-1" source="4Sy1q6FF75Fvo_xeQfH7-72" target="4Sy1q6FF75Fvo_xeQfH7-49" edge="1">
          <mxGeometry width="160" relative="1" as="geometry">
            <mxPoint x="-1288" y="200" as="sourcePoint" />
            <mxPoint x="-1128" y="200" as="targetPoint" />
          </mxGeometry>
        </mxCell>
        <mxCell id="4Sy1q6FF75Fvo_xeQfH7-86" value="25" style="text;html=1;align=center;verticalAlign=middle;resizable=0;points=[];autosize=1;fontColor=#000000;" parent="WIyWlLk6GJQsqaUBKTNV-1" vertex="1">
          <mxGeometry x="-818" y="250" width="30" height="20" as="geometry" />
        </mxCell>
        <mxCell id="4Sy1q6FF75Fvo_xeQfH7-87" value="FaithTile" style="swimlane;fontStyle=1;align=center;verticalAlign=top;childLayout=stackLayout;horizontal=1;startSize=26;horizontalStack=0;resizeParent=1;resizeParentMax=0;resizeLast=0;collapsible=1;marginBottom=0;" parent="WIyWlLk6GJQsqaUBKTNV-1" vertex="1">
          <mxGeometry x="-1150" y="270" width="180" height="140" as="geometry" />
        </mxCell>
        <mxCell id="4Sy1q6FF75Fvo_xeQfH7-88" value="- status: FaithTileStatus&#xa;- section: FaithSection&#xa;" style="text;strokeColor=none;fillColor=none;align=left;verticalAlign=top;spacingLeft=4;spacingRight=4;overflow=hidden;rotatable=0;points=[[0,0.5],[1,0.5]];portConstraint=eastwest;" parent="4Sy1q6FF75Fvo_xeQfH7-87" vertex="1">
          <mxGeometry y="26" width="180" height="44" as="geometry" />
        </mxCell>
        <mxCell id="4Sy1q6FF75Fvo_xeQfH7-89" value="" style="line;strokeWidth=1;fillColor=none;align=left;verticalAlign=middle;spacingTop=-1;spacingLeft=3;spacingRight=3;rotatable=0;labelPosition=right;points=[];portConstraint=eastwest;" parent="4Sy1q6FF75Fvo_xeQfH7-87" vertex="1">
          <mxGeometry y="70" width="180" height="8" as="geometry" />
        </mxCell>
        <mxCell id="4Sy1q6FF75Fvo_xeQfH7-90" value="+ getStatus(): FaithTileStatus&#xa;+ setStatus()&#xa;+ getVictoryPoints(): integer&#xa;" style="text;strokeColor=none;fillColor=none;align=left;verticalAlign=top;spacingLeft=4;spacingRight=4;overflow=hidden;rotatable=0;points=[[0,0.5],[1,0.5]];portConstraint=eastwest;" parent="4Sy1q6FF75Fvo_xeQfH7-87" vertex="1">
          <mxGeometry y="78" width="180" height="62" as="geometry" />
        </mxCell>
        <mxCell id="4Sy1q6FF75Fvo_xeQfH7-91" value="" style="endArrow=open;endFill=1;endSize=12;html=1;fontColor=#000000;" parent="WIyWlLk6GJQsqaUBKTNV-1" source="4Sy1q6FF75Fvo_xeQfH7-87" target="4Sy1q6FF75Fvo_xeQfH7-49" edge="1">
          <mxGeometry width="160" relative="1" as="geometry">
            <mxPoint x="-1228" y="170" as="sourcePoint" />
            <mxPoint x="-1068" y="170" as="targetPoint" />
          </mxGeometry>
        </mxCell>
        <mxCell id="4Sy1q6FF75Fvo_xeQfH7-92" value="FaithTileStatus" style="swimlane;fontStyle=0;childLayout=stackLayout;horizontal=1;startSize=26;fillColor=none;horizontalStack=0;resizeParent=1;resizeParentMax=0;resizeLast=0;collapsible=1;marginBottom=0;" parent="WIyWlLk6GJQsqaUBKTNV-1" vertex="1">
          <mxGeometry x="-1670" y="-410" width="140" height="90" as="geometry" />
        </mxCell>
        <mxCell id="4Sy1q6FF75Fvo_xeQfH7-93" value="NOT_REACHED&#xa;VALID&#xa;DISCARDED&#xa;" style="text;strokeColor=none;fillColor=none;align=left;verticalAlign=top;spacingLeft=4;spacingRight=4;overflow=hidden;rotatable=0;points=[[0,0.5],[1,0.5]];portConstraint=eastwest;" parent="4Sy1q6FF75Fvo_xeQfH7-92" vertex="1">
          <mxGeometry y="26" width="140" height="64" as="geometry" />
        </mxCell>
        <mxCell id="4Sy1q6FF75Fvo_xeQfH7-96" value="&lt;&lt;Abstract&gt;&gt;&#xa;CardLeader" style="swimlane;fontStyle=3;align=center;verticalAlign=top;childLayout=stackLayout;horizontal=1;startSize=40;horizontalStack=0;resizeParent=1;resizeParentMax=0;resizeLast=0;collapsible=1;marginBottom=0;fontColor=#000000;" parent="WIyWlLk6GJQsqaUBKTNV-1" vertex="1">
          <mxGeometry x="-790" y="1320" width="260" height="230" as="geometry" />
        </mxCell>
        <mxCell id="4Sy1q6FF75Fvo_xeQfH7-97" value="- type : CardLeaderType&#xa;- victoryPoints: integer&#xa;- requirements: Map&lt;Resource, integer&gt;&#xa;" style="text;strokeColor=none;fillColor=none;align=left;verticalAlign=top;spacingLeft=4;spacingRight=4;overflow=hidden;rotatable=0;points=[[0,0.5],[1,0.5]];portConstraint=eastwest;" parent="4Sy1q6FF75Fvo_xeQfH7-96" vertex="1">
          <mxGeometry y="40" width="260" height="60" as="geometry" />
        </mxCell>
        <mxCell id="4Sy1q6FF75Fvo_xeQfH7-98" value="" style="line;strokeWidth=1;fillColor=none;align=left;verticalAlign=middle;spacingTop=-1;spacingLeft=3;spacingRight=3;rotatable=0;labelPosition=right;points=[];portConstraint=eastwest;" parent="4Sy1q6FF75Fvo_xeQfH7-96" vertex="1">
          <mxGeometry y="100" width="260" height="8" as="geometry" />
        </mxCell>
        <mxCell id="4Sy1q6FF75Fvo_xeQfH7-99" value="+ getters&#xa;&#xa;+ canActivate(): boolean&#xa;+ activate():&#xa;+ discard():&#xa;+ getType():CardLeaderType&#xa;" style="text;strokeColor=none;fillColor=none;align=left;verticalAlign=top;spacingLeft=4;spacingRight=4;overflow=hidden;rotatable=0;points=[[0,0.5],[1,0.5]];portConstraint=eastwest;" parent="4Sy1q6FF75Fvo_xeQfH7-96" vertex="1">
          <mxGeometry y="108" width="260" height="122" as="geometry" />
        </mxCell>
        <mxCell id="4Sy1q6FF75Fvo_xeQfH7-100" value="CardLeaderDeck" style="swimlane;fontStyle=1;align=center;verticalAlign=top;childLayout=stackLayout;horizontal=1;startSize=26;horizontalStack=0;resizeParent=1;resizeParentMax=0;resizeLast=0;collapsible=1;marginBottom=0;fontColor=#000000;" parent="WIyWlLk6GJQsqaUBKTNV-1" vertex="1">
          <mxGeometry x="-730" y="820" width="160" height="86" as="geometry" />
        </mxCell>
        <mxCell id="4Sy1q6FF75Fvo_xeQfH7-101" value="+ field: type" style="text;strokeColor=none;fillColor=none;align=left;verticalAlign=top;spacingLeft=4;spacingRight=4;overflow=hidden;rotatable=0;points=[[0,0.5],[1,0.5]];portConstraint=eastwest;" parent="4Sy1q6FF75Fvo_xeQfH7-100" vertex="1">
          <mxGeometry y="26" width="160" height="26" as="geometry" />
        </mxCell>
        <mxCell id="4Sy1q6FF75Fvo_xeQfH7-102" value="" style="line;strokeWidth=1;fillColor=none;align=left;verticalAlign=middle;spacingTop=-1;spacingLeft=3;spacingRight=3;rotatable=0;labelPosition=right;points=[];portConstraint=eastwest;" parent="4Sy1q6FF75Fvo_xeQfH7-100" vertex="1">
          <mxGeometry y="52" width="160" height="8" as="geometry" />
        </mxCell>
        <mxCell id="4Sy1q6FF75Fvo_xeQfH7-103" value="+ method(type): type" style="text;strokeColor=none;fillColor=none;align=left;verticalAlign=top;spacingLeft=4;spacingRight=4;overflow=hidden;rotatable=0;points=[[0,0.5],[1,0.5]];portConstraint=eastwest;" parent="4Sy1q6FF75Fvo_xeQfH7-100" vertex="1">
          <mxGeometry y="60" width="160" height="26" as="geometry" />
        </mxCell>
        <mxCell id="4Sy1q6FF75Fvo_xeQfH7-111" value="" style="endArrow=open;endFill=1;endSize=12;html=1;fontColor=#000000;" parent="WIyWlLk6GJQsqaUBKTNV-1" source="4Sy1q6FF75Fvo_xeQfH7-100" target="4Sy1q6FF75Fvo_xeQfH7-0" edge="1">
          <mxGeometry width="160" relative="1" as="geometry">
            <mxPoint x="-370" y="50" as="sourcePoint" />
            <mxPoint x="-210" y="50" as="targetPoint" />
          </mxGeometry>
        </mxCell>
        <mxCell id="4Sy1q6FF75Fvo_xeQfH7-114" value="CardLeaderDiscount" style="swimlane;fontStyle=1;align=center;verticalAlign=top;childLayout=stackLayout;horizontal=1;startSize=26;horizontalStack=0;resizeParent=1;resizeParentMax=0;resizeLast=0;collapsible=1;marginBottom=0;fontColor=#000000;" parent="WIyWlLk6GJQsqaUBKTNV-1" vertex="1">
          <mxGeometry x="-1260" y="1074" width="220" height="86" as="geometry" />
        </mxCell>
        <mxCell id="4Sy1q6FF75Fvo_xeQfH7-115" value="- resourceToBeDiscounted: Resource" style="text;strokeColor=none;fillColor=none;align=left;verticalAlign=top;spacingLeft=4;spacingRight=4;overflow=hidden;rotatable=0;points=[[0,0.5],[1,0.5]];portConstraint=eastwest;" parent="4Sy1q6FF75Fvo_xeQfH7-114" vertex="1">
          <mxGeometry y="26" width="220" height="26" as="geometry" />
        </mxCell>
        <mxCell id="4Sy1q6FF75Fvo_xeQfH7-116" value="" style="line;strokeWidth=1;fillColor=none;align=left;verticalAlign=middle;spacingTop=-1;spacingLeft=3;spacingRight=3;rotatable=0;labelPosition=right;points=[];portConstraint=eastwest;" parent="4Sy1q6FF75Fvo_xeQfH7-114" vertex="1">
          <mxGeometry y="52" width="220" height="8" as="geometry" />
        </mxCell>
        <mxCell id="4Sy1q6FF75Fvo_xeQfH7-117" value="+ activate():" style="text;strokeColor=none;fillColor=none;align=left;verticalAlign=top;spacingLeft=4;spacingRight=4;overflow=hidden;rotatable=0;points=[[0,0.5],[1,0.5]];portConstraint=eastwest;" parent="4Sy1q6FF75Fvo_xeQfH7-114" vertex="1">
          <mxGeometry y="60" width="220" height="26" as="geometry" />
        </mxCell>
        <mxCell id="4Sy1q6FF75Fvo_xeQfH7-119" value="CardLeaderMarble" style="swimlane;fontStyle=1;align=center;verticalAlign=top;childLayout=stackLayout;horizontal=1;startSize=26;horizontalStack=0;resizeParent=1;resizeParentMax=0;resizeLast=0;collapsible=1;marginBottom=0;fontColor=#000000;" parent="WIyWlLk6GJQsqaUBKTNV-1" vertex="1">
          <mxGeometry x="-1000" y="1074" width="210" height="86" as="geometry" />
        </mxCell>
        <mxCell id="4Sy1q6FF75Fvo_xeQfH7-120" value="- resourceToBeConverted: Resource" style="text;strokeColor=none;fillColor=none;align=left;verticalAlign=top;spacingLeft=4;spacingRight=4;overflow=hidden;rotatable=0;points=[[0,0.5],[1,0.5]];portConstraint=eastwest;" parent="4Sy1q6FF75Fvo_xeQfH7-119" vertex="1">
          <mxGeometry y="26" width="210" height="26" as="geometry" />
        </mxCell>
        <mxCell id="4Sy1q6FF75Fvo_xeQfH7-121" value="" style="line;strokeWidth=1;fillColor=none;align=left;verticalAlign=middle;spacingTop=-1;spacingLeft=3;spacingRight=3;rotatable=0;labelPosition=right;points=[];portConstraint=eastwest;" parent="4Sy1q6FF75Fvo_xeQfH7-119" vertex="1">
          <mxGeometry y="52" width="210" height="8" as="geometry" />
        </mxCell>
        <mxCell id="4Sy1q6FF75Fvo_xeQfH7-122" value="+ activate():" style="text;strokeColor=none;fillColor=none;align=left;verticalAlign=top;spacingLeft=4;spacingRight=4;overflow=hidden;rotatable=0;points=[[0,0.5],[1,0.5]];portConstraint=eastwest;" parent="4Sy1q6FF75Fvo_xeQfH7-119" vertex="1">
          <mxGeometry y="60" width="210" height="26" as="geometry" />
        </mxCell>
        <mxCell id="4Sy1q6FF75Fvo_xeQfH7-123" value="CardLeaderProduction" style="swimlane;fontStyle=1;align=center;verticalAlign=top;childLayout=stackLayout;horizontal=1;startSize=26;horizontalStack=0;resizeParent=1;resizeParentMax=0;resizeLast=0;collapsible=1;marginBottom=0;fontColor=#000000;" parent="WIyWlLk6GJQsqaUBKTNV-1" vertex="1">
          <mxGeometry x="-520" y="1074" width="210" height="86" as="geometry" />
        </mxCell>
        <mxCell id="4Sy1q6FF75Fvo_xeQfH7-124" value="- resourceToBeConsumed: Resource" style="text;strokeColor=none;fillColor=none;align=left;verticalAlign=top;spacingLeft=4;spacingRight=4;overflow=hidden;rotatable=0;points=[[0,0.5],[1,0.5]];portConstraint=eastwest;" parent="4Sy1q6FF75Fvo_xeQfH7-123" vertex="1">
          <mxGeometry y="26" width="210" height="26" as="geometry" />
        </mxCell>
        <mxCell id="4Sy1q6FF75Fvo_xeQfH7-125" value="" style="line;strokeWidth=1;fillColor=none;align=left;verticalAlign=middle;spacingTop=-1;spacingLeft=3;spacingRight=3;rotatable=0;labelPosition=right;points=[];portConstraint=eastwest;" parent="4Sy1q6FF75Fvo_xeQfH7-123" vertex="1">
          <mxGeometry y="52" width="210" height="8" as="geometry" />
        </mxCell>
        <mxCell id="4Sy1q6FF75Fvo_xeQfH7-126" value="+ activate():" style="text;strokeColor=none;fillColor=none;align=left;verticalAlign=top;spacingLeft=4;spacingRight=4;overflow=hidden;rotatable=0;points=[[0,0.5],[1,0.5]];portConstraint=eastwest;" parent="4Sy1q6FF75Fvo_xeQfH7-123" vertex="1">
          <mxGeometry y="60" width="210" height="26" as="geometry" />
        </mxCell>
        <mxCell id="4Sy1q6FF75Fvo_xeQfH7-127" value="CardLeaderDeposit" style="swimlane;fontStyle=1;align=center;verticalAlign=top;childLayout=stackLayout;horizontal=1;startSize=26;horizontalStack=0;resizeParent=1;resizeParentMax=0;resizeLast=0;collapsible=1;marginBottom=0;fontColor=#000000;" parent="WIyWlLk6GJQsqaUBKTNV-1" vertex="1">
          <mxGeometry x="-750" y="1074" width="190" height="86" as="geometry" />
        </mxCell>
        <mxCell id="4Sy1q6FF75Fvo_xeQfH7-128" value="- resourceToBeStored: Resource" style="text;strokeColor=none;fillColor=none;align=left;verticalAlign=top;spacingLeft=4;spacingRight=4;overflow=hidden;rotatable=0;points=[[0,0.5],[1,0.5]];portConstraint=eastwest;" parent="4Sy1q6FF75Fvo_xeQfH7-127" vertex="1">
          <mxGeometry y="26" width="190" height="26" as="geometry" />
        </mxCell>
        <mxCell id="4Sy1q6FF75Fvo_xeQfH7-129" value="" style="line;strokeWidth=1;fillColor=none;align=left;verticalAlign=middle;spacingTop=-1;spacingLeft=3;spacingRight=3;rotatable=0;labelPosition=right;points=[];portConstraint=eastwest;" parent="4Sy1q6FF75Fvo_xeQfH7-127" vertex="1">
          <mxGeometry y="52" width="190" height="8" as="geometry" />
        </mxCell>
        <mxCell id="4Sy1q6FF75Fvo_xeQfH7-130" value="+ activate(): " style="text;strokeColor=none;fillColor=none;align=left;verticalAlign=top;spacingLeft=4;spacingRight=4;overflow=hidden;rotatable=0;points=[[0,0.5],[1,0.5]];portConstraint=eastwest;" parent="4Sy1q6FF75Fvo_xeQfH7-127" vertex="1">
          <mxGeometry y="60" width="190" height="26" as="geometry" />
        </mxCell>
        <mxCell id="4Sy1q6FF75Fvo_xeQfH7-131" value="" style="endArrow=open;endFill=1;endSize=12;html=1;fontColor=#000000;" parent="WIyWlLk6GJQsqaUBKTNV-1" source="4Sy1q6FF75Fvo_xeQfH7-40" target="4Sy1q6FF75Fvo_xeQfH7-96" edge="1">
          <mxGeometry width="160" relative="1" as="geometry">
            <mxPoint x="-440" y="1030" as="sourcePoint" />
            <mxPoint x="-280" y="1030" as="targetPoint" />
          </mxGeometry>
        </mxCell>
        <mxCell id="4Sy1q6FF75Fvo_xeQfH7-132" value="2" style="text;html=1;align=center;verticalAlign=middle;resizable=0;points=[];autosize=1;fontColor=#000000;" parent="WIyWlLk6GJQsqaUBKTNV-1" vertex="1">
          <mxGeometry x="-470" y="1310" width="20" height="20" as="geometry" />
        </mxCell>
        <mxCell id="4Sy1q6FF75Fvo_xeQfH7-133" value="Extends" style="endArrow=block;endSize=16;endFill=0;html=1;fontColor=#000000;" parent="WIyWlLk6GJQsqaUBKTNV-1" source="4Sy1q6FF75Fvo_xeQfH7-123" target="4Sy1q6FF75Fvo_xeQfH7-96" edge="1">
          <mxGeometry width="160" relative="1" as="geometry">
            <mxPoint x="-440" y="1030" as="sourcePoint" />
            <mxPoint x="-280" y="1030" as="targetPoint" />
          </mxGeometry>
        </mxCell>
        <mxCell id="4Sy1q6FF75Fvo_xeQfH7-134" value="Extends" style="endArrow=block;endSize=16;endFill=0;html=1;fontColor=#000000;" parent="WIyWlLk6GJQsqaUBKTNV-1" source="4Sy1q6FF75Fvo_xeQfH7-127" target="4Sy1q6FF75Fvo_xeQfH7-96" edge="1">
          <mxGeometry width="160" relative="1" as="geometry">
            <mxPoint x="-800" y="1280" as="sourcePoint" />
            <mxPoint x="-859.4968553459116" y="1440" as="targetPoint" />
          </mxGeometry>
        </mxCell>
        <mxCell id="4Sy1q6FF75Fvo_xeQfH7-135" value="Extends" style="endArrow=block;endSize=16;endFill=0;html=1;fontColor=#000000;" parent="WIyWlLk6GJQsqaUBKTNV-1" source="4Sy1q6FF75Fvo_xeQfH7-119" target="4Sy1q6FF75Fvo_xeQfH7-96" edge="1">
          <mxGeometry width="160" relative="1" as="geometry">
            <mxPoint x="-770" y="1300" as="sourcePoint" />
            <mxPoint x="-829.4968553459116" y="1460" as="targetPoint" />
          </mxGeometry>
        </mxCell>
        <mxCell id="4Sy1q6FF75Fvo_xeQfH7-136" value="Extends" style="endArrow=block;endSize=16;endFill=0;html=1;fontColor=#000000;" parent="WIyWlLk6GJQsqaUBKTNV-1" source="4Sy1q6FF75Fvo_xeQfH7-114" target="4Sy1q6FF75Fvo_xeQfH7-96" edge="1">
          <mxGeometry width="160" relative="1" as="geometry">
            <mxPoint x="-950" y="1340" as="sourcePoint" />
            <mxPoint x="-1009.4968553459116" y="1500" as="targetPoint" />
          </mxGeometry>
        </mxCell>
        <mxCell id="4Sy1q6FF75Fvo_xeQfH7-137" value="" style="endArrow=diamondThin;endFill=0;endSize=24;html=1;fontColor=#000000;" parent="WIyWlLk6GJQsqaUBKTNV-1" source="4Sy1q6FF75Fvo_xeQfH7-114" target="4Sy1q6FF75Fvo_xeQfH7-100" edge="1">
          <mxGeometry width="160" relative="1" as="geometry">
            <mxPoint x="-440" y="1040" as="sourcePoint" />
            <mxPoint x="-280" y="1040" as="targetPoint" />
          </mxGeometry>
        </mxCell>
        <mxCell id="4Sy1q6FF75Fvo_xeQfH7-138" value="" style="endArrow=diamondThin;endFill=0;endSize=24;html=1;fontColor=#000000;" parent="WIyWlLk6GJQsqaUBKTNV-1" source="4Sy1q6FF75Fvo_xeQfH7-119" target="4Sy1q6FF75Fvo_xeQfH7-100" edge="1">
          <mxGeometry width="160" relative="1" as="geometry">
            <mxPoint x="-320" y="940" as="sourcePoint" />
            <mxPoint x="31.117424242424477" y="760.0097087378645" as="targetPoint" />
          </mxGeometry>
        </mxCell>
        <mxCell id="4Sy1q6FF75Fvo_xeQfH7-139" value="" style="endArrow=diamondThin;endFill=0;endSize=24;html=1;fontColor=#000000;" parent="WIyWlLk6GJQsqaUBKTNV-1" source="4Sy1q6FF75Fvo_xeQfH7-127" target="4Sy1q6FF75Fvo_xeQfH7-100" edge="1">
          <mxGeometry width="160" relative="1" as="geometry">
            <mxPoint x="-430" y="890" as="sourcePoint" />
            <mxPoint x="-258.068181818182" y="712" as="targetPoint" />
          </mxGeometry>
        </mxCell>
        <mxCell id="4Sy1q6FF75Fvo_xeQfH7-140" value="" style="endArrow=diamondThin;endFill=0;endSize=24;html=1;fontColor=#000000;" parent="WIyWlLk6GJQsqaUBKTNV-1" source="4Sy1q6FF75Fvo_xeQfH7-123" target="4Sy1q6FF75Fvo_xeQfH7-100" edge="1">
          <mxGeometry width="160" relative="1" as="geometry">
            <mxPoint x="-330" y="850" as="sourcePoint" />
            <mxPoint x="-158.06818181818198" y="672" as="targetPoint" />
          </mxGeometry>
        </mxCell>
        <mxCell id="4Sy1q6FF75Fvo_xeQfH7-142" value="CardDevelopment" style="swimlane;fontStyle=1;align=center;verticalAlign=top;childLayout=stackLayout;horizontal=1;startSize=26;horizontalStack=0;resizeParent=1;resizeParentMax=0;resizeLast=0;collapsible=1;marginBottom=0;" parent="WIyWlLk6GJQsqaUBKTNV-1" vertex="1">
          <mxGeometry x="47.5" y="1377" width="305" height="200" as="geometry" />
        </mxCell>
        <mxCell id="4Sy1q6FF75Fvo_xeQfH7-143" value="- level: CardDevelopmentLevel&#xa;- cost: Map&lt;Resource, integer&gt;&#xa;- type: CardDevelopmentType&#xa;- productionInput: Map&lt;Resource, integer&gt;&#xa;- productionOutput: Map&lt;Resource, integer&gt;&#xa;- victoryPoints: integer&#xa;&#xa;&#xa;&#xa;" style="text;strokeColor=none;fillColor=none;align=left;verticalAlign=top;spacingLeft=4;spacingRight=4;overflow=hidden;rotatable=0;points=[[0,0.5],[1,0.5]];portConstraint=eastwest;" parent="4Sy1q6FF75Fvo_xeQfH7-142" vertex="1">
          <mxGeometry y="26" width="305" height="94" as="geometry" />
        </mxCell>
        <mxCell id="4Sy1q6FF75Fvo_xeQfH7-144" value="" style="line;strokeWidth=1;fillColor=none;align=left;verticalAlign=middle;spacingTop=-1;spacingLeft=3;spacingRight=3;rotatable=0;labelPosition=right;points=[];portConstraint=eastwest;" parent="4Sy1q6FF75Fvo_xeQfH7-142" vertex="1">
          <mxGeometry y="120" width="305" height="8" as="geometry" />
        </mxCell>
        <mxCell id="4Sy1q6FF75Fvo_xeQfH7-145" value="+ getters&#xa;&#xa;+ activate():&#xa;+ canActivate(): boolean&#xa;" style="text;strokeColor=none;fillColor=none;align=left;verticalAlign=top;spacingLeft=4;spacingRight=4;overflow=hidden;rotatable=0;points=[[0,0.5],[1,0.5]];portConstraint=eastwest;" parent="4Sy1q6FF75Fvo_xeQfH7-142" vertex="1">
          <mxGeometry y="128" width="305" height="72" as="geometry" />
        </mxCell>
        <mxCell id="4Sy1q6FF75Fvo_xeQfH7-146" value="" style="endArrow=diamondThin;endFill=0;endSize=24;html=1;fontColor=#000000;" parent="WIyWlLk6GJQsqaUBKTNV-1" source="4Sy1q6FF75Fvo_xeQfH7-142" target="4Sy1q6FF75Fvo_xeQfH7-45" edge="1">
          <mxGeometry width="160" relative="1" as="geometry">
            <mxPoint x="130" y="1200" as="sourcePoint" />
            <mxPoint x="290" y="1200" as="targetPoint" />
          </mxGeometry>
        </mxCell>
        <mxCell id="4Sy1q6FF75Fvo_xeQfH7-147" value="0..3" style="text;html=1;align=center;verticalAlign=middle;resizable=0;points=[];autosize=1;fontColor=#000000;" parent="WIyWlLk6GJQsqaUBKTNV-1" vertex="1">
          <mxGeometry x="160" y="1350" width="40" height="20" as="geometry" />
        </mxCell>
        <mxCell id="4Sy1q6FF75Fvo_xeQfH7-149" value="CardDevelopmentMarket" style="swimlane;fontStyle=1;align=center;verticalAlign=top;childLayout=stackLayout;horizontal=1;startSize=26;horizontalStack=0;resizeParent=1;resizeParentMax=0;resizeLast=0;collapsible=1;marginBottom=0;" parent="WIyWlLk6GJQsqaUBKTNV-1" vertex="1">
          <mxGeometry x="-260" y="1244" width="240" height="86" as="geometry" />
        </mxCell>
        <mxCell id="4Sy1q6FF75Fvo_xeQfH7-150" value="+ market: List&lt;CardDevelopmentStack&gt;" style="text;strokeColor=none;fillColor=none;align=left;verticalAlign=top;spacingLeft=4;spacingRight=4;overflow=hidden;rotatable=0;points=[[0,0.5],[1,0.5]];portConstraint=eastwest;" parent="4Sy1q6FF75Fvo_xeQfH7-149" vertex="1">
          <mxGeometry y="26" width="240" height="26" as="geometry" />
        </mxCell>
        <mxCell id="4Sy1q6FF75Fvo_xeQfH7-151" value="" style="line;strokeWidth=1;fillColor=none;align=left;verticalAlign=middle;spacingTop=-1;spacingLeft=3;spacingRight=3;rotatable=0;labelPosition=right;points=[];portConstraint=eastwest;" parent="4Sy1q6FF75Fvo_xeQfH7-149" vertex="1">
          <mxGeometry y="52" width="240" height="8" as="geometry" />
        </mxCell>
        <mxCell id="4Sy1q6FF75Fvo_xeQfH7-152" value="+ popStack(integer): CardDevelopment" style="text;strokeColor=none;fillColor=none;align=left;verticalAlign=top;spacingLeft=4;spacingRight=4;overflow=hidden;rotatable=0;points=[[0,0.5],[1,0.5]];portConstraint=eastwest;" parent="4Sy1q6FF75Fvo_xeQfH7-149" vertex="1">
          <mxGeometry y="60" width="240" height="26" as="geometry" />
        </mxCell>
        <mxCell id="4Sy1q6FF75Fvo_xeQfH7-153" value="CardDevelopmentStack" style="swimlane;fontStyle=1;align=center;verticalAlign=top;childLayout=stackLayout;horizontal=1;startSize=26;horizontalStack=0;resizeParent=1;resizeParentMax=0;resizeLast=0;collapsible=1;marginBottom=0;" parent="WIyWlLk6GJQsqaUBKTNV-1" vertex="1">
          <mxGeometry x="105" y="1900" width="180" height="60" as="geometry" />
        </mxCell>
        <mxCell id="4Sy1q6FF75Fvo_xeQfH7-155" value="" style="line;strokeWidth=1;fillColor=none;align=left;verticalAlign=middle;spacingTop=-1;spacingLeft=3;spacingRight=3;rotatable=0;labelPosition=right;points=[];portConstraint=eastwest;" parent="4Sy1q6FF75Fvo_xeQfH7-153" vertex="1">
          <mxGeometry y="26" width="180" height="8" as="geometry" />
        </mxCell>
        <mxCell id="4Sy1q6FF75Fvo_xeQfH7-156" value="+ pop(): CardDevelopment" style="text;strokeColor=none;fillColor=none;align=left;verticalAlign=top;spacingLeft=4;spacingRight=4;overflow=hidden;rotatable=0;points=[[0,0.5],[1,0.5]];portConstraint=eastwest;" parent="4Sy1q6FF75Fvo_xeQfH7-153" vertex="1">
          <mxGeometry y="34" width="180" height="26" as="geometry" />
        </mxCell>
        <mxCell id="4Sy1q6FF75Fvo_xeQfH7-157" value="&lt;p style=&quot;margin: 0px ; margin-top: 4px ; text-align: center&quot;&gt;&lt;i&gt;&amp;lt;&amp;lt;Interface&amp;gt;&amp;gt;&lt;/i&gt;&lt;br&gt;&lt;b&gt;Stack&lt;/b&gt;&lt;/p&gt;&lt;hr size=&quot;1&quot;&gt;" style="verticalAlign=top;align=left;overflow=fill;fontSize=12;fontFamily=Helvetica;html=1;" parent="WIyWlLk6GJQsqaUBKTNV-1" vertex="1">
          <mxGeometry x="385" y="1926.5" width="190" height="33" as="geometry" />
        </mxCell>
        <mxCell id="4Sy1q6FF75Fvo_xeQfH7-158" value="" style="endArrow=block;dashed=1;endFill=0;endSize=12;html=1;fontColor=#000000;" parent="WIyWlLk6GJQsqaUBKTNV-1" source="4Sy1q6FF75Fvo_xeQfH7-153" target="4Sy1q6FF75Fvo_xeQfH7-157" edge="1">
          <mxGeometry width="160" relative="1" as="geometry">
            <mxPoint x="305" y="1820" as="sourcePoint" />
            <mxPoint x="465" y="1820" as="targetPoint" />
          </mxGeometry>
        </mxCell>
        <mxCell id="4Sy1q6FF75Fvo_xeQfH7-159" value="" style="endArrow=diamondThin;endFill=0;endSize=24;html=1;fontColor=#000000;" parent="WIyWlLk6GJQsqaUBKTNV-1" source="4Sy1q6FF75Fvo_xeQfH7-153" target="4Sy1q6FF75Fvo_xeQfH7-149" edge="1">
          <mxGeometry width="160" relative="1" as="geometry">
            <mxPoint x="80" y="1470" as="sourcePoint" />
            <mxPoint x="240" y="1470" as="targetPoint" />
          </mxGeometry>
        </mxCell>
        <mxCell id="4Sy1q6FF75Fvo_xeQfH7-161" value="12" style="text;html=1;align=center;verticalAlign=middle;resizable=0;points=[];autosize=1;fontColor=#000000;" parent="WIyWlLk6GJQsqaUBKTNV-1" vertex="1">
          <mxGeometry x="-130" y="1357" width="30" height="20" as="geometry" />
        </mxCell>
        <mxCell id="4Sy1q6FF75Fvo_xeQfH7-162" value="" style="endArrow=diamondThin;endFill=0;endSize=24;html=1;fontColor=#000000;" parent="WIyWlLk6GJQsqaUBKTNV-1" source="4Sy1q6FF75Fvo_xeQfH7-142" target="4Sy1q6FF75Fvo_xeQfH7-153" edge="1">
          <mxGeometry width="160" relative="1" as="geometry">
            <mxPoint x="80" y="1470" as="sourcePoint" />
            <mxPoint x="240" y="1470" as="targetPoint" />
          </mxGeometry>
        </mxCell>
        <mxCell id="4Sy1q6FF75Fvo_xeQfH7-163" value="0..4" style="text;html=1;align=center;verticalAlign=middle;resizable=0;points=[];autosize=1;fontColor=#000000;" parent="WIyWlLk6GJQsqaUBKTNV-1" vertex="1">
          <mxGeometry x="160" y="1610" width="40" height="20" as="geometry" />
        </mxCell>
        <mxCell id="4Sy1q6FF75Fvo_xeQfH7-165" value="" style="endArrow=open;endFill=1;endSize=12;html=1;fontColor=#000000;" parent="WIyWlLk6GJQsqaUBKTNV-1" source="4Sy1q6FF75Fvo_xeQfH7-149" target="4Sy1q6FF75Fvo_xeQfH7-0" edge="1">
          <mxGeometry width="160" relative="1" as="geometry">
            <mxPoint x="430" y="1110" as="sourcePoint" />
            <mxPoint x="590" y="1110" as="targetPoint" />
          </mxGeometry>
        </mxCell>
        <mxCell id="4Sy1q6FF75Fvo_xeQfH7-166" value="" style="endArrow=open;endFill=1;endSize=12;html=1;fontColor=#000000;" parent="WIyWlLk6GJQsqaUBKTNV-1" source="4Sy1q6FF75Fvo_xeQfH7-149" target="4Sy1q6FF75Fvo_xeQfH7-22" edge="1">
          <mxGeometry width="160" relative="1" as="geometry">
            <mxPoint x="-20" y="1190" as="sourcePoint" />
            <mxPoint x="140" y="1190" as="targetPoint" />
          </mxGeometry>
        </mxCell>
        <mxCell id="4Sy1q6FF75Fvo_xeQfH7-167" value="CardDevelopmentLevel" style="swimlane;fontStyle=0;childLayout=stackLayout;horizontal=1;startSize=26;fillColor=none;horizontalStack=0;resizeParent=1;resizeParentMax=0;resizeLast=0;collapsible=1;marginBottom=0;" parent="WIyWlLk6GJQsqaUBKTNV-1" vertex="1">
          <mxGeometry x="-1480" y="-410" width="140" height="90" as="geometry" />
        </mxCell>
        <mxCell id="4Sy1q6FF75Fvo_xeQfH7-168" value="1&#xa;2&#xa;3" style="text;strokeColor=none;fillColor=none;align=left;verticalAlign=top;spacingLeft=4;spacingRight=4;overflow=hidden;rotatable=0;points=[[0,0.5],[1,0.5]];portConstraint=eastwest;" parent="4Sy1q6FF75Fvo_xeQfH7-167" vertex="1">
          <mxGeometry y="26" width="140" height="64" as="geometry" />
        </mxCell>
        <mxCell id="4Sy1q6FF75Fvo_xeQfH7-169" value="Resource" style="swimlane;fontStyle=0;childLayout=stackLayout;horizontal=1;startSize=26;fillColor=none;horizontalStack=0;resizeParent=1;resizeParentMax=0;resizeLast=0;collapsible=1;marginBottom=0;" parent="WIyWlLk6GJQsqaUBKTNV-1" vertex="1">
          <mxGeometry x="-1290" y="-410" width="140" height="90" as="geometry" />
        </mxCell>
        <mxCell id="4Sy1q6FF75Fvo_xeQfH7-170" value="BLUE&#xa;PURPLE&#xa;YELLOW&#xa;GREY&#xa;" style="text;strokeColor=none;fillColor=none;align=left;verticalAlign=top;spacingLeft=4;spacingRight=4;overflow=hidden;rotatable=0;points=[[0,0.5],[1,0.5]];portConstraint=eastwest;" parent="4Sy1q6FF75Fvo_xeQfH7-169" vertex="1">
          <mxGeometry y="26" width="140" height="64" as="geometry" />
        </mxCell>
        <mxCell id="4Sy1q6FF75Fvo_xeQfH7-171" value="MarbleColor" style="swimlane;fontStyle=0;childLayout=stackLayout;horizontal=1;startSize=26;fillColor=none;horizontalStack=0;resizeParent=1;resizeParentMax=0;resizeLast=0;collapsible=1;marginBottom=0;" parent="WIyWlLk6GJQsqaUBKTNV-1" vertex="1">
          <mxGeometry x="-1670" y="-270" width="140" height="120" as="geometry" />
        </mxCell>
        <mxCell id="4Sy1q6FF75Fvo_xeQfH7-172" value="BLUE&#xa;PURPLE&#xa;YELLOW&#xa;GREY&#xa;RED&#xa;WHITE&#xa;" style="text;strokeColor=none;fillColor=none;align=left;verticalAlign=top;spacingLeft=4;spacingRight=4;overflow=hidden;rotatable=0;points=[[0,0.5],[1,0.5]];portConstraint=eastwest;" parent="4Sy1q6FF75Fvo_xeQfH7-171" vertex="1">
          <mxGeometry y="26" width="140" height="94" as="geometry" />
        </mxCell>
        <mxCell id="4Sy1q6FF75Fvo_xeQfH7-176" value="ActionCardDeck" style="swimlane;fontStyle=1;align=center;verticalAlign=top;childLayout=stackLayout;horizontal=1;startSize=26;horizontalStack=0;resizeParent=1;resizeParentMax=0;resizeLast=0;collapsible=1;marginBottom=0;" parent="WIyWlLk6GJQsqaUBKTNV-1" vertex="1">
          <mxGeometry x="-430" y="-550" width="250" height="160" as="geometry" />
        </mxCell>
        <mxCell id="4Sy1q6FF75Fvo_xeQfH7-177" value="- usedStack: List&lt;ActionCard&gt;&#xa;- availableStack: List&lt;ActionCard&gt;&#xa;" style="text;strokeColor=none;fillColor=none;align=left;verticalAlign=top;spacingLeft=4;spacingRight=4;overflow=hidden;rotatable=0;points=[[0,0.5],[1,0.5]];portConstraint=eastwest;" parent="4Sy1q6FF75Fvo_xeQfH7-176" vertex="1">
          <mxGeometry y="26" width="250" height="44" as="geometry" />
        </mxCell>
        <mxCell id="4Sy1q6FF75Fvo_xeQfH7-178" value="" style="line;strokeWidth=1;fillColor=none;align=left;verticalAlign=middle;spacingTop=-1;spacingLeft=3;spacingRight=3;rotatable=0;labelPosition=right;points=[];portConstraint=eastwest;" parent="4Sy1q6FF75Fvo_xeQfH7-176" vertex="1">
          <mxGeometry y="70" width="250" height="8" as="geometry" />
        </mxCell>
        <mxCell id="4Sy1q6FF75Fvo_xeQfH7-179" value="+ getCard(): ActionCard&#xa;+ shuffleDeck(): &#xa; " style="text;strokeColor=none;fillColor=none;align=left;verticalAlign=top;spacingLeft=4;spacingRight=4;overflow=hidden;rotatable=0;points=[[0,0.5],[1,0.5]];portConstraint=eastwest;" parent="4Sy1q6FF75Fvo_xeQfH7-176" vertex="1">
          <mxGeometry y="78" width="250" height="82" as="geometry" />
        </mxCell>
        <mxCell id="4Sy1q6FF75Fvo_xeQfH7-180" value="&lt;&lt;Abstract&gt;&gt;&#xa;ActionCard&#xa;" style="swimlane;fontStyle=1;align=center;verticalAlign=top;childLayout=stackLayout;horizontal=1;startSize=40;horizontalStack=0;resizeParent=1;resizeParentMax=0;resizeLast=0;collapsible=1;marginBottom=0;" parent="WIyWlLk6GJQsqaUBKTNV-1" vertex="1">
          <mxGeometry x="-430" y="-904" width="250" height="174" as="geometry" />
        </mxCell>
        <mxCell id="4Sy1q6FF75Fvo_xeQfH7-181" value="- type: ActionCardType&#xa; " style="text;strokeColor=none;fillColor=none;align=left;verticalAlign=top;spacingLeft=4;spacingRight=4;overflow=hidden;rotatable=0;points=[[0,0.5],[1,0.5]];portConstraint=eastwest;" parent="4Sy1q6FF75Fvo_xeQfH7-180" vertex="1">
          <mxGeometry y="40" width="250" height="44" as="geometry" />
        </mxCell>
        <mxCell id="4Sy1q6FF75Fvo_xeQfH7-182" value="" style="line;strokeWidth=1;fillColor=none;align=left;verticalAlign=middle;spacingTop=-1;spacingLeft=3;spacingRight=3;rotatable=0;labelPosition=right;points=[];portConstraint=eastwest;" parent="4Sy1q6FF75Fvo_xeQfH7-180" vertex="1">
          <mxGeometry y="84" width="250" height="8" as="geometry" />
        </mxCell>
        <mxCell id="4Sy1q6FF75Fvo_xeQfH7-183" value="+ getType(): ActionCardType&#xa;+ activate():&#xa;" style="text;strokeColor=none;fillColor=none;align=left;verticalAlign=top;spacingLeft=4;spacingRight=4;overflow=hidden;rotatable=0;points=[[0,0.5],[1,0.5]];portConstraint=eastwest;" parent="4Sy1q6FF75Fvo_xeQfH7-180" vertex="1">
          <mxGeometry y="92" width="250" height="82" as="geometry" />
        </mxCell>
        <mxCell id="4Sy1q6FF75Fvo_xeQfH7-184" value="ActionCardDiscard" style="swimlane;fontStyle=1;align=center;verticalAlign=top;childLayout=stackLayout;horizontal=1;startSize=26;horizontalStack=0;resizeParent=1;resizeParentMax=0;resizeLast=0;collapsible=1;marginBottom=0;" parent="WIyWlLk6GJQsqaUBKTNV-1" vertex="1">
          <mxGeometry x="-780" y="-1240" width="280" height="160" as="geometry" />
        </mxCell>
        <mxCell id="4Sy1q6FF75Fvo_xeQfH7-185" value="- colorCardToBeDiscarted:CardDevelopmentType" style="text;strokeColor=none;fillColor=none;align=left;verticalAlign=top;spacingLeft=4;spacingRight=4;overflow=hidden;rotatable=0;points=[[0,0.5],[1,0.5]];portConstraint=eastwest;" parent="4Sy1q6FF75Fvo_xeQfH7-184" vertex="1">
          <mxGeometry y="26" width="280" height="44" as="geometry" />
        </mxCell>
        <mxCell id="4Sy1q6FF75Fvo_xeQfH7-186" value="" style="line;strokeWidth=1;fillColor=none;align=left;verticalAlign=middle;spacingTop=-1;spacingLeft=3;spacingRight=3;rotatable=0;labelPosition=right;points=[];portConstraint=eastwest;" parent="4Sy1q6FF75Fvo_xeQfH7-184" vertex="1">
          <mxGeometry y="70" width="280" height="8" as="geometry" />
        </mxCell>
        <mxCell id="4Sy1q6FF75Fvo_xeQfH7-187" value="+ activate():" style="text;strokeColor=none;fillColor=none;align=left;verticalAlign=top;spacingLeft=4;spacingRight=4;overflow=hidden;rotatable=0;points=[[0,0.5],[1,0.5]];portConstraint=eastwest;" parent="4Sy1q6FF75Fvo_xeQfH7-184" vertex="1">
          <mxGeometry y="78" width="280" height="82" as="geometry" />
        </mxCell>
        <mxCell id="4Sy1q6FF75Fvo_xeQfH7-192" value="ActionCardShuffle" style="swimlane;fontStyle=1;align=center;verticalAlign=top;childLayout=stackLayout;horizontal=1;startSize=26;horizontalStack=0;resizeParent=1;resizeParentMax=0;resizeLast=0;collapsible=1;marginBottom=0;" parent="WIyWlLk6GJQsqaUBKTNV-1" vertex="1">
          <mxGeometry x="-415" y="-1240" width="250" height="160" as="geometry" />
        </mxCell>
        <mxCell id="4Sy1q6FF75Fvo_xeQfH7-193" value="-" style="text;strokeColor=none;fillColor=none;align=left;verticalAlign=top;spacingLeft=4;spacingRight=4;overflow=hidden;rotatable=0;points=[[0,0.5],[1,0.5]];portConstraint=eastwest;" parent="4Sy1q6FF75Fvo_xeQfH7-192" vertex="1">
          <mxGeometry y="26" width="250" height="44" as="geometry" />
        </mxCell>
        <mxCell id="4Sy1q6FF75Fvo_xeQfH7-194" value="" style="line;strokeWidth=1;fillColor=none;align=left;verticalAlign=middle;spacingTop=-1;spacingLeft=3;spacingRight=3;rotatable=0;labelPosition=right;points=[];portConstraint=eastwest;" parent="4Sy1q6FF75Fvo_xeQfH7-192" vertex="1">
          <mxGeometry y="70" width="250" height="8" as="geometry" />
        </mxCell>
        <mxCell id="4Sy1q6FF75Fvo_xeQfH7-195" value="+ activate():" style="text;strokeColor=none;fillColor=none;align=left;verticalAlign=top;spacingLeft=4;spacingRight=4;overflow=hidden;rotatable=0;points=[[0,0.5],[1,0.5]];portConstraint=eastwest;" parent="4Sy1q6FF75Fvo_xeQfH7-192" vertex="1">
          <mxGeometry y="78" width="250" height="82" as="geometry" />
        </mxCell>
        <mxCell id="4Sy1q6FF75Fvo_xeQfH7-196" value="ActionCardAdvance" style="swimlane;fontStyle=1;align=center;verticalAlign=top;childLayout=stackLayout;horizontal=1;startSize=26;horizontalStack=0;resizeParent=1;resizeParentMax=0;resizeLast=0;collapsible=1;marginBottom=0;" parent="WIyWlLk6GJQsqaUBKTNV-1" vertex="1">
          <mxGeometry x="-80" y="-1240" width="250" height="160" as="geometry" />
        </mxCell>
        <mxCell id="4Sy1q6FF75Fvo_xeQfH7-197" value="-" style="text;strokeColor=none;fillColor=none;align=left;verticalAlign=top;spacingLeft=4;spacingRight=4;overflow=hidden;rotatable=0;points=[[0,0.5],[1,0.5]];portConstraint=eastwest;" parent="4Sy1q6FF75Fvo_xeQfH7-196" vertex="1">
          <mxGeometry y="26" width="250" height="44" as="geometry" />
        </mxCell>
        <mxCell id="4Sy1q6FF75Fvo_xeQfH7-198" value="" style="line;strokeWidth=1;fillColor=none;align=left;verticalAlign=middle;spacingTop=-1;spacingLeft=3;spacingRight=3;rotatable=0;labelPosition=right;points=[];portConstraint=eastwest;" parent="4Sy1q6FF75Fvo_xeQfH7-196" vertex="1">
          <mxGeometry y="70" width="250" height="8" as="geometry" />
        </mxCell>
        <mxCell id="4Sy1q6FF75Fvo_xeQfH7-199" value="+ activate(): " style="text;strokeColor=none;fillColor=none;align=left;verticalAlign=top;spacingLeft=4;spacingRight=4;overflow=hidden;rotatable=0;points=[[0,0.5],[1,0.5]];portConstraint=eastwest;" parent="4Sy1q6FF75Fvo_xeQfH7-196" vertex="1">
          <mxGeometry y="78" width="250" height="82" as="geometry" />
        </mxCell>
        <mxCell id="4Sy1q6FF75Fvo_xeQfH7-200" value="Extends" style="endArrow=block;endSize=16;endFill=0;html=1;fontColor=#000000;" parent="WIyWlLk6GJQsqaUBKTNV-1" source="4Sy1q6FF75Fvo_xeQfH7-184" target="4Sy1q6FF75Fvo_xeQfH7-180" edge="1">
          <mxGeometry width="160" relative="1" as="geometry">
            <mxPoint x="-360" y="-710" as="sourcePoint" />
            <mxPoint x="-415" y="-1020.2089552238806" as="targetPoint" />
          </mxGeometry>
        </mxCell>
        <mxCell id="4Sy1q6FF75Fvo_xeQfH7-201" value="Extends" style="endArrow=block;endSize=16;endFill=0;html=1;fontColor=#000000;" parent="WIyWlLk6GJQsqaUBKTNV-1" source="4Sy1q6FF75Fvo_xeQfH7-192" target="4Sy1q6FF75Fvo_xeQfH7-180" edge="1">
          <mxGeometry width="160" relative="1" as="geometry">
            <mxPoint x="-620" y="-950" as="sourcePoint" />
            <mxPoint x="-290" y="-1024.0000000000002" as="targetPoint" />
          </mxGeometry>
        </mxCell>
        <mxCell id="4Sy1q6FF75Fvo_xeQfH7-202" value="Extends" style="endArrow=block;endSize=16;endFill=0;html=1;fontColor=#000000;" parent="WIyWlLk6GJQsqaUBKTNV-1" source="4Sy1q6FF75Fvo_xeQfH7-196" target="4Sy1q6FF75Fvo_xeQfH7-180" edge="1">
          <mxGeometry width="160" relative="1" as="geometry">
            <mxPoint x="-710" y="-950" as="sourcePoint" />
            <mxPoint x="-165" y="-1020.2089552238806" as="targetPoint" />
          </mxGeometry>
        </mxCell>
        <mxCell id="4Sy1q6FF75Fvo_xeQfH7-206" value="" style="endArrow=diamondThin;endFill=0;endSize=24;html=1;fontColor=#000000;" parent="WIyWlLk6GJQsqaUBKTNV-1" source="4Sy1q6FF75Fvo_xeQfH7-180" target="4Sy1q6FF75Fvo_xeQfH7-176" edge="1">
          <mxGeometry width="160" relative="1" as="geometry">
            <mxPoint x="-340" y="-640" as="sourcePoint" />
            <mxPoint x="-344.6253602305478" y="-550" as="targetPoint" />
          </mxGeometry>
        </mxCell>
        <mxCell id="4Sy1q6FF75Fvo_xeQfH7-207" value="7" style="text;html=1;align=center;verticalAlign=middle;resizable=0;points=[];autosize=1;fontColor=#000000;" parent="WIyWlLk6GJQsqaUBKTNV-1" vertex="1">
          <mxGeometry x="-310" y="-710" width="20" height="20" as="geometry" />
        </mxCell>
        <mxCell id="4Sy1q6FF75Fvo_xeQfH7-208" value="" style="endArrow=open;endFill=1;endSize=12;html=1;fontColor=#000000;" parent="WIyWlLk6GJQsqaUBKTNV-1" source="4Sy1q6FF75Fvo_xeQfH7-176" target="4Sy1q6FF75Fvo_xeQfH7-209" edge="1">
          <mxGeometry width="160" relative="1" as="geometry">
            <mxPoint x="-330" y="-70" as="sourcePoint" />
            <mxPoint x="-170" y="-70" as="targetPoint" />
          </mxGeometry>
        </mxCell>
        <mxCell id="4Sy1q6FF75Fvo_xeQfH7-209" value="Lorenzo" style="swimlane;fontStyle=1;align=center;verticalAlign=top;childLayout=stackLayout;horizontal=1;startSize=26;horizontalStack=0;resizeParent=1;resizeParentMax=0;resizeLast=0;collapsible=1;marginBottom=0;" parent="WIyWlLk6GJQsqaUBKTNV-1" vertex="1">
          <mxGeometry x="-430" y="-193" width="250" height="160" as="geometry" />
        </mxCell>
        <mxCell id="4Sy1q6FF75Fvo_xeQfH7-210" value="- faithPosition: integer&#xa;" style="text;strokeColor=none;fillColor=none;align=left;verticalAlign=top;spacingLeft=4;spacingRight=4;overflow=hidden;rotatable=0;points=[[0,0.5],[1,0.5]];portConstraint=eastwest;" parent="4Sy1q6FF75Fvo_xeQfH7-209" vertex="1">
          <mxGeometry y="26" width="250" height="44" as="geometry" />
        </mxCell>
        <mxCell id="4Sy1q6FF75Fvo_xeQfH7-211" value="" style="line;strokeWidth=1;fillColor=none;align=left;verticalAlign=middle;spacingTop=-1;spacingLeft=3;spacingRight=3;rotatable=0;labelPosition=right;points=[];portConstraint=eastwest;" parent="4Sy1q6FF75Fvo_xeQfH7-209" vertex="1">
          <mxGeometry y="70" width="250" height="8" as="geometry" />
        </mxCell>
        <mxCell id="4Sy1q6FF75Fvo_xeQfH7-212" value="+ moveFaithPawn(): integer&#xa;+ pickActionCard(): ActionCard&#xa;&#xa;" style="text;strokeColor=none;fillColor=none;align=left;verticalAlign=top;spacingLeft=4;spacingRight=4;overflow=hidden;rotatable=0;points=[[0,0.5],[1,0.5]];portConstraint=eastwest;" parent="4Sy1q6FF75Fvo_xeQfH7-209" vertex="1">
          <mxGeometry y="78" width="250" height="82" as="geometry" />
        </mxCell>
        <mxCell id="4Sy1q6FF75Fvo_xeQfH7-214" value="" style="endArrow=open;endFill=1;endSize=12;html=1;fontColor=#000000;" parent="WIyWlLk6GJQsqaUBKTNV-1" source="4Sy1q6FF75Fvo_xeQfH7-209" target="4Sy1q6FF75Fvo_xeQfH7-0" edge="1">
          <mxGeometry width="160" relative="1" as="geometry">
            <mxPoint x="-320" y="-260" as="sourcePoint" />
            <mxPoint x="-160" y="-260" as="targetPoint" />
          </mxGeometry>
        </mxCell>
        <mxCell id="4Sy1q6FF75Fvo_xeQfH7-216" value="ActionCardType" style="swimlane;fontStyle=0;childLayout=stackLayout;horizontal=1;startSize=26;fillColor=none;horizontalStack=0;resizeParent=1;resizeParentMax=0;resizeLast=0;collapsible=1;marginBottom=0;" parent="WIyWlLk6GJQsqaUBKTNV-1" vertex="1">
          <mxGeometry x="-1480" y="-270" width="140" height="90" as="geometry" />
        </mxCell>
        <mxCell id="4Sy1q6FF75Fvo_xeQfH7-217" value="DISCARD&#xa;SHUFFLE&#xa;ADVANCE&#xa;" style="text;strokeColor=none;fillColor=none;align=left;verticalAlign=top;spacingLeft=4;spacingRight=4;overflow=hidden;rotatable=0;points=[[0,0.5],[1,0.5]];portConstraint=eastwest;" parent="4Sy1q6FF75Fvo_xeQfH7-216" vertex="1">
          <mxGeometry y="26" width="140" height="64" as="geometry" />
        </mxCell>
        <mxCell id="4Sy1q6FF75Fvo_xeQfH7-218" value="CardDevelopmentType" style="swimlane;fontStyle=0;childLayout=stackLayout;horizontal=1;startSize=26;fillColor=none;horizontalStack=0;resizeParent=1;resizeParentMax=0;resizeLast=0;collapsible=1;marginBottom=0;" parent="WIyWlLk6GJQsqaUBKTNV-1" vertex="1">
          <mxGeometry x="-1300" y="-270" width="140" height="90" as="geometry" />
        </mxCell>
        <mxCell id="4Sy1q6FF75Fvo_xeQfH7-219" value="BLUE&#xa;PURPLE&#xa;YELLOW&#xa;GREEN&#xa;" style="text;strokeColor=none;fillColor=none;align=left;verticalAlign=top;spacingLeft=4;spacingRight=4;overflow=hidden;rotatable=0;points=[[0,0.5],[1,0.5]];portConstraint=eastwest;" parent="4Sy1q6FF75Fvo_xeQfH7-218" vertex="1">
          <mxGeometry y="26" width="140" height="64" as="geometry" />
        </mxCell>
      </root>
    </mxGraphModel>
  </diagram>
</mxfile>
